<svg width="42" height="33" viewBox="0 0 42 33" fill="none" xmlns="http://www.w3.org/2000/svg">
<g clip-path="url(#clip0_2538_4064)">
<mask id="mask0_2538_4064" style="mask-type:luminance" maskUnits="userSpaceOnUse" x="0" y="0" width="42" height="33">
<path d="M41.7222 0.5H0.413086V32.5H41.7222V0.5Z" fill="white"/>
</mask>
<g mask="url(#mask0_2538_4064)">
<path d="M35.383 3.3503C32.7501 2.14222 29.9267 1.25215 26.9747 0.742373C26.9209 0.732534 26.8672 0.757121 26.8395 0.806297C26.4764 1.45212 26.0742 2.29465 25.7925 2.95688C22.6174 2.48153 19.4586 2.48153 16.3486 2.95688C16.0669 2.27993 15.6501 1.45212 15.2853 0.806297C15.2577 0.758762 15.204 0.734175 15.1502 0.742373C12.1998 1.25052 9.3764 2.14059 6.74187 3.3503C6.71906 3.36014 6.69952 3.37654 6.68654 3.39784C1.33117 11.3987 -0.135895 19.2028 0.583796 26.9102C0.587052 26.9479 0.60822 26.984 0.637529 27.0069C4.17085 29.6017 7.59348 31.177 10.9525 32.2211C11.0063 32.2375 11.0633 32.2179 11.0975 32.1736C11.8921 31.0885 12.6004 29.9443 13.2077 28.7411C13.2435 28.6707 13.2093 28.5871 13.1361 28.5592C12.0126 28.133 10.9428 27.6134 9.91371 27.0233C9.83232 26.9758 9.8258 26.8594 9.90068 26.8036C10.1172 26.6414 10.3338 26.4725 10.5406 26.302C10.578 26.2709 10.6302 26.2643 10.6741 26.284C17.4346 29.3706 24.7537 29.3706 31.4344 26.284C31.4784 26.2627 31.5305 26.2693 31.5696 26.3004C31.7764 26.4709 31.993 26.6414 32.2111 26.8036C32.286 26.8594 32.2811 26.9758 32.1997 27.0233C31.1707 27.6249 30.1009 28.133 28.9758 28.5576C28.9025 28.5854 28.8699 28.6707 28.9058 28.7411C29.5261 29.9427 30.2344 31.0868 31.0143 32.172C31.0469 32.2179 31.1055 32.2375 31.1593 32.2211C34.5346 31.177 37.9572 29.6017 41.4906 27.0069C41.5215 26.984 41.5411 26.9495 41.5443 26.9118C42.4056 18.0012 40.1016 10.2611 35.4367 3.39947C35.4253 3.37654 35.4058 3.36014 35.383 3.3503ZM14.2172 22.2172C12.1819 22.2172 10.5048 20.3486 10.5048 18.0537C10.5048 15.7589 12.1493 13.8902 14.2172 13.8902C16.3014 13.8902 17.9622 15.7753 17.9297 18.0537C17.9297 20.3486 16.2851 22.2172 14.2172 22.2172ZM27.9434 22.2172C25.9081 22.2172 24.231 20.3486 24.231 18.0537C24.231 15.7589 25.8755 13.8902 27.9434 13.8902C30.0276 13.8902 31.6884 15.7753 31.6559 18.0537C31.6559 20.3486 30.0276 22.2172 27.9434 22.2172Z" fill="#AAAAAA"/>
</g>
</g>
<defs>
<clipPath id="clip0_2538_4064">
<rect width="41.3091" height="32" fill="white" transform="translate(0.413086 0.5)"/>
</clipPath>
</defs>
</svg>
