<svg width="98" height="25" viewBox="0 0 98 25" fill="none" xmlns="http://www.w3.org/2000/svg">
<path d="M17.04 19.22V24.5H0.112V1.076H6.288V19.22H17.04ZM30.2473 24.916C22.6313 24.916 17.6073 19.764 17.6073 12.788C17.6073 5.844 22.6313 0.691999 30.2473 0.691999C37.8953 0.691999 42.9833 5.844 42.9833 12.788C42.9833 19.764 37.8953 24.916 30.2473 24.916ZM30.2793 6.356C26.5993 6.356 23.8153 9.14 23.8153 12.788C23.8153 16.468 26.5993 19.252 30.2793 19.252C33.9593 19.252 36.7433 16.468 36.7433 12.788C36.7433 9.14 33.9593 6.356 30.2793 6.356ZM69.8998 10.836C69.9318 11.604 69.9638 12.596 69.8038 14.42C69.2278 20.468 64.4278 24.916 57.4838 24.916C50.1238 24.916 44.7798 19.604 44.7798 12.82C44.7798 6.004 50.1238 0.691999 57.4838 0.691999C62.6678 0.691999 66.2838 3.124 68.4918 6.836L62.9558 9.364C61.8038 7.636 60.0758 6.324 57.4838 6.324C53.8038 6.324 50.9558 9.14 50.9558 12.82C50.9558 16.468 53.8038 19.252 57.4838 19.252C60.3318 19.252 62.5398 17.812 63.1158 15.54H55.9798V10.836H69.8998ZM84.3735 24.916C76.7575 24.916 71.7335 19.764 71.7335 12.788C71.7335 5.844 76.7575 0.691999 84.3735 0.691999C92.0215 0.691999 97.1095 5.844 97.1095 12.788C97.1095 19.764 92.0215 24.916 84.3735 24.916ZM84.4055 6.356C80.7255 6.356 77.9415 9.14 77.9415 12.788C77.9415 16.468 80.7255 19.252 84.4055 19.252C88.0855 19.252 90.8695 16.468 90.8695 12.788C90.8695 9.14 88.0855 6.356 84.4055 6.356Z" fill="#F3F3F3"/>
</svg>
