<svg width="34" height="33" viewBox="0 0 34 33" fill="none" xmlns="http://www.w3.org/2000/svg">
<g clip-path="url(#clip0_2538_4074)">
<path d="M28.1776 27.5773H23.4794V20.2921C23.4794 18.5548 23.448 16.3185 21.0358 16.3185C18.5888 16.3185 18.2144 18.2113 18.2144 20.1656V27.5768H13.5161V12.5954H18.0264V14.6428H18.0896C18.5409 13.8786 19.1932 13.25 19.9769 12.8238C20.7605 12.3977 21.6463 12.1899 22.5397 12.2228C27.3016 12.2228 28.1796 15.3241 28.1796 19.3588L28.1776 27.5773ZM8.21489 10.5476C7.67564 10.5477 7.14847 10.3894 6.70005 10.0929C6.25163 9.79633 5.90212 9.37477 5.69568 8.88152C5.48923 8.38827 5.43512 7.84547 5.54023 7.32178C5.64533 6.79809 5.90493 6.31702 6.28616 5.93941C6.6674 5.56179 7.15316 5.30459 7.68202 5.20033C8.21089 5.09607 8.75908 5.14944 9.25732 5.35368C9.75555 5.55791 10.1814 5.90385 10.4811 6.34775C10.7808 6.79164 10.9408 7.31356 10.9409 7.84749C10.9409 8.20201 10.8705 8.55307 10.7335 8.88062C10.5965 9.20818 10.3958 9.50582 10.1427 9.75654C9.88953 10.0073 9.58898 10.2062 9.25821 10.3419C8.92745 10.4776 8.57293 10.5475 8.21489 10.5476ZM10.564 27.5773H5.86086V12.5954H10.564V27.5773ZM30.5199 0.828311H3.49999C2.88672 0.821458 2.29575 1.05597 1.85701 1.4803C1.41827 1.90464 1.16764 2.48408 1.16016 3.09131V29.9561C1.16738 30.5636 1.41787 31.1435 1.85659 31.5682C2.29532 31.993 2.88641 32.228 3.49999 32.2215H30.5199C31.1347 32.2291 31.7274 31.9949 32.1679 31.5701C32.6084 31.1453 32.8605 30.5648 32.869 29.9561V3.08937C32.8603 2.48094 32.6079 1.90083 32.1675 1.47651C31.727 1.05218 31.1344 0.818347 30.5199 0.826372" fill="#AAAAAA"/>
</g>
<defs>
<clipPath id="clip0_2538_4074">
<rect width="32.5" height="32" fill="white" transform="translate(0.722656 0.5)"/>
</clipPath>
</defs>
</svg>
