<svg width="33" height="33" viewBox="0 0 33 33" fill="none" xmlns="http://www.w3.org/2000/svg">
<g clip-path="url(#clip0_2538_4070)">
<path d="M32.7217 16.501C32.7217 7.66445 25.5582 0.501013 16.7217 0.501013C7.88512 0.501013 0.72168 7.66445 0.72168 16.501C0.72168 24.4871 6.57265 31.1063 14.2217 32.3066V21.126H10.1592V16.501H14.2217V12.976C14.2217 8.96601 16.6104 6.75101 20.2651 6.75101C22.0156 6.75101 23.8467 7.06351 23.8467 7.06351V11.001H21.8291C19.8415 11.001 19.2217 12.2344 19.2217 13.4997V16.501H23.6592L22.9498 21.126H19.2217V32.3066C26.8707 31.1063 32.7217 24.4871 32.7217 16.501Z" fill="#AAAAAA"/>
</g>
<defs>
<clipPath id="clip0_2538_4070">
<rect width="32" height="32" fill="white" transform="translate(0.722656 0.5)"/>
</clipPath>
</defs>
</svg>
